# xmcd CD database file
#
# Track frame offsets:
#	150
#	23878
#	43835
#	63305
#	85723
#	103868
#	117605
#	132068
#	144315
#	165068
#	188353
#
# Disc length: 2689 seconds
#
# Revision: 2
# Processed by: cddbd v1.4b41PL1 Copyright (c) Steve Scherf et al.
# Submitted via: Feurio! 1.50.2ß - http://www.feurio.com
#
DISCID=860a7f0b
DTITLE=Silverchair - Frogstomp
DYEAR=1900
DGENRE=
TTITLE0=Israel's Son
TTITLE1=Tomorrow
TTITLE2=Faultline
TTITLE3=Pure Massacre
TTITLE4=Shade
TTITLE5=Leave Me Out
TTITLE6=Suicidal Dreams
TTITLE7=Madman
TTITLE8=Undecided
TTITLE9=Cicada
TTITLE10=Findaway
EXTD=
EXTT0=
EXTT1=
EXTT2=
EXTT3=
EXTT4=
EXTT5=
EXTT6=
EXTT7=
EXTT8=
EXTT9=
EXTT10=
PLAYORDER=
